<mxfile host="app.diagrams.net" agent="Mozilla/5.0 (Windows NT 10.0; Win64; x64) AppleWebKit/537.36 (KHTML, like Gecko) Chrome/136.0.0.0 Safari/537.36" version="27.0.3">
  <diagram name="Page-1" id="8krlojRuD5WrmD5kMqza">
    <mxGraphModel dx="1481" dy="1870" grid="1" gridSize="10" guides="1" tooltips="1" connect="1" arrows="1" fold="1" page="1" pageScale="1" pageWidth="827" pageHeight="1169" math="0" shadow="0">
      <root>
        <mxCell id="0" />
        <mxCell id="1" parent="0" />
        <mxCell id="gi-I5en-eRK9dhFBFpVk-24" value="" style="edgeStyle=orthogonalEdgeStyle;rounded=0;orthogonalLoop=1;jettySize=auto;html=1;" edge="1" parent="1" source="gi-I5en-eRK9dhFBFpVk-21" target="gi-I5en-eRK9dhFBFpVk-23">
          <mxGeometry relative="1" as="geometry" />
        </mxCell>
        <mxCell id="gi-I5en-eRK9dhFBFpVk-21" value="&lt;b&gt;&lt;span style=&quot;font-size:12.0pt;line-height:107%;&lt;br/&gt;font-family:&amp;quot;Times New Roman&amp;quot;,serif;mso-fareast-font-family:&amp;quot;Times New Roman&amp;quot;;&lt;br/&gt;mso-ansi-language:RU;mso-fareast-language:RU;mso-bidi-language:AR-SA&quot;&gt;P1.1&lt;br/&gt;Учебный процесс&lt;/span&gt;&lt;/b&gt;" style="rounded=0;whiteSpace=wrap;html=1;" vertex="1" parent="1">
          <mxGeometry x="220" y="180" width="130" height="60" as="geometry" />
        </mxCell>
        <mxCell id="gi-I5en-eRK9dhFBFpVk-22" value="&lt;font style=&quot;font-size: 18px;&quot;&gt;&lt;b&gt;Просесс&lt;/b&gt;&lt;/font&gt;" style="text;html=1;align=center;verticalAlign=middle;resizable=0;points=[];autosize=1;strokeColor=none;fillColor=none;" vertex="1" parent="1">
          <mxGeometry x="10" y="180" width="100" height="40" as="geometry" />
        </mxCell>
        <mxCell id="gi-I5en-eRK9dhFBFpVk-35" style="edgeStyle=orthogonalEdgeStyle;rounded=0;orthogonalLoop=1;jettySize=auto;html=1;exitX=1;exitY=0.5;exitDx=0;exitDy=0;entryX=0;entryY=0.5;entryDx=0;entryDy=0;" edge="1" parent="1" source="gi-I5en-eRK9dhFBFpVk-23" target="gi-I5en-eRK9dhFBFpVk-26">
          <mxGeometry relative="1" as="geometry" />
        </mxCell>
        <mxCell id="gi-I5en-eRK9dhFBFpVk-36" style="edgeStyle=orthogonalEdgeStyle;rounded=0;orthogonalLoop=1;jettySize=auto;html=1;exitX=0.5;exitY=1;exitDx=0;exitDy=0;entryX=0.5;entryY=0;entryDx=0;entryDy=0;" edge="1" parent="1" source="gi-I5en-eRK9dhFBFpVk-23" target="gi-I5en-eRK9dhFBFpVk-25">
          <mxGeometry relative="1" as="geometry" />
        </mxCell>
        <mxCell id="gi-I5en-eRK9dhFBFpVk-23" value="&lt;b&gt;&lt;span style=&quot;font-size:12.0pt;line-height:107%;&lt;br/&gt;font-family:&amp;quot;Times New Roman&amp;quot;,serif;mso-fareast-font-family:&amp;quot;Times New Roman&amp;quot;;&lt;br/&gt;mso-ansi-language:RU;mso-fareast-language:RU;mso-bidi-language:AR-SA&quot;&gt;P2.1&lt;br/&gt;Задача&lt;/span&gt;&lt;/b&gt;" style="whiteSpace=wrap;html=1;rounded=0;" vertex="1" parent="1">
          <mxGeometry x="220" y="320" width="130" height="60" as="geometry" />
        </mxCell>
        <mxCell id="gi-I5en-eRK9dhFBFpVk-37" style="edgeStyle=orthogonalEdgeStyle;rounded=0;orthogonalLoop=1;jettySize=auto;html=1;exitX=1;exitY=0.5;exitDx=0;exitDy=0;entryX=0;entryY=0.5;entryDx=0;entryDy=0;" edge="1" parent="1" source="gi-I5en-eRK9dhFBFpVk-25" target="gi-I5en-eRK9dhFBFpVk-29">
          <mxGeometry relative="1" as="geometry" />
        </mxCell>
        <mxCell id="gi-I5en-eRK9dhFBFpVk-39" style="edgeStyle=orthogonalEdgeStyle;rounded=0;orthogonalLoop=1;jettySize=auto;html=1;exitX=0.5;exitY=1;exitDx=0;exitDy=0;entryX=0.5;entryY=0;entryDx=0;entryDy=0;" edge="1" parent="1" source="gi-I5en-eRK9dhFBFpVk-25" target="gi-I5en-eRK9dhFBFpVk-27">
          <mxGeometry relative="1" as="geometry" />
        </mxCell>
        <mxCell id="gi-I5en-eRK9dhFBFpVk-40" style="edgeStyle=orthogonalEdgeStyle;rounded=0;orthogonalLoop=1;jettySize=auto;html=1;exitX=1;exitY=0.5;exitDx=0;exitDy=0;entryX=0.5;entryY=0;entryDx=0;entryDy=0;" edge="1" parent="1" source="gi-I5en-eRK9dhFBFpVk-25" target="gi-I5en-eRK9dhFBFpVk-28">
          <mxGeometry relative="1" as="geometry" />
        </mxCell>
        <mxCell id="gi-I5en-eRK9dhFBFpVk-25" value="&lt;b&gt;&lt;span style=&quot;font-size:12.0pt;line-height:107%;&lt;br/&gt;font-family:&amp;quot;Times New Roman&amp;quot;,serif;mso-fareast-font-family:&amp;quot;Times New Roman&amp;quot;;&lt;br/&gt;mso-ansi-language:RU;mso-fareast-language:RU;mso-bidi-language:AR-SA&quot;&gt;K2.1&lt;br/&gt;Средство-устройство&lt;/span&gt;&lt;/b&gt;" style="rounded=0;whiteSpace=wrap;html=1;" vertex="1" parent="1">
          <mxGeometry x="220" y="440" width="130" height="60" as="geometry" />
        </mxCell>
        <mxCell id="gi-I5en-eRK9dhFBFpVk-38" style="edgeStyle=orthogonalEdgeStyle;rounded=0;orthogonalLoop=1;jettySize=auto;html=1;exitX=0.5;exitY=1;exitDx=0;exitDy=0;entryX=0.5;entryY=0;entryDx=0;entryDy=0;" edge="1" parent="1" source="gi-I5en-eRK9dhFBFpVk-26" target="gi-I5en-eRK9dhFBFpVk-29">
          <mxGeometry relative="1" as="geometry" />
        </mxCell>
        <mxCell id="gi-I5en-eRK9dhFBFpVk-26" value="&lt;b&gt;&lt;span style=&quot;font-size:12.0pt;line-height:107%;&lt;br/&gt;font-family:&amp;quot;Times New Roman&amp;quot;,serif;mso-fareast-font-family:&amp;quot;Times New Roman&amp;quot;;&lt;br/&gt;mso-ansi-language:RU;mso-fareast-language:RU;mso-bidi-language:AR-SA&quot;&gt;O7.2&lt;br/&gt;Система онлайн-обучения&lt;/span&gt;&lt;/b&gt;" style="rounded=0;whiteSpace=wrap;html=1;" vertex="1" parent="1">
          <mxGeometry x="585" y="320" width="170" height="60" as="geometry" />
        </mxCell>
        <mxCell id="gi-I5en-eRK9dhFBFpVk-27" value="&lt;b&gt;&lt;span style=&quot;font-size:12.0pt;line-height:107%;&lt;br/&gt;font-family:&amp;quot;Times New Roman&amp;quot;,serif;mso-fareast-font-family:&amp;quot;Times New Roman&amp;quot;;&lt;br/&gt;mso-ansi-language:RU;mso-fareast-language:RU;mso-bidi-language:AR-SA&quot;&gt;O7.1&lt;br/&gt;Фигура (виртуальная)&lt;/span&gt;&lt;/b&gt;" style="rounded=0;whiteSpace=wrap;html=1;" vertex="1" parent="1">
          <mxGeometry x="220" y="543" width="130" height="60" as="geometry" />
        </mxCell>
        <mxCell id="gi-I5en-eRK9dhFBFpVk-41" style="edgeStyle=orthogonalEdgeStyle;rounded=0;orthogonalLoop=1;jettySize=auto;html=1;exitX=0.5;exitY=1;exitDx=0;exitDy=0;entryX=0.5;entryY=0;entryDx=0;entryDy=0;" edge="1" parent="1" source="gi-I5en-eRK9dhFBFpVk-28" target="gi-I5en-eRK9dhFBFpVk-30">
          <mxGeometry relative="1" as="geometry" />
        </mxCell>
        <mxCell id="gi-I5en-eRK9dhFBFpVk-43" style="edgeStyle=orthogonalEdgeStyle;rounded=0;orthogonalLoop=1;jettySize=auto;html=1;exitX=1;exitY=0.5;exitDx=0;exitDy=0;entryX=0.5;entryY=0;entryDx=0;entryDy=0;" edge="1" parent="1" source="gi-I5en-eRK9dhFBFpVk-28" target="gi-I5en-eRK9dhFBFpVk-31">
          <mxGeometry relative="1" as="geometry">
            <Array as="points">
              <mxPoint x="520" y="583" />
              <mxPoint x="680" y="583" />
            </Array>
          </mxGeometry>
        </mxCell>
        <mxCell id="gi-I5en-eRK9dhFBFpVk-28" value="&lt;b&gt;&lt;span style=&quot;font-size:12.0pt;line-height:107%;&lt;br/&gt;font-family:&amp;quot;Times New Roman&amp;quot;,serif;mso-fareast-font-family:&amp;quot;Times New Roman&amp;quot;;&lt;br/&gt;mso-ansi-language:RU;mso-fareast-language:RU;mso-bidi-language:AR-SA&quot;&gt;O10.2&lt;br/&gt;Фигура&lt;/span&gt;&lt;/b&gt;" style="rounded=0;whiteSpace=wrap;html=1;" vertex="1" parent="1">
          <mxGeometry x="400" y="543" width="120" height="60" as="geometry" />
        </mxCell>
        <mxCell id="gi-I5en-eRK9dhFBFpVk-29" value="&lt;b&gt;&lt;span style=&quot;font-size:12.0pt;line-height:107%;&lt;br/&gt;font-family:&amp;quot;Times New Roman&amp;quot;,serif;mso-fareast-font-family:&amp;quot;Times New Roman&amp;quot;;&lt;br/&gt;mso-ansi-language:RU;mso-fareast-language:RU;mso-bidi-language:AR-SA&quot;&gt;O7.3&lt;br/&gt;Состав и компоненты узла&lt;/span&gt;&lt;/b&gt;" style="rounded=0;whiteSpace=wrap;html=1;" vertex="1" parent="1">
          <mxGeometry x="585" y="440" width="170" height="60" as="geometry" />
        </mxCell>
        <mxCell id="gi-I5en-eRK9dhFBFpVk-42" style="edgeStyle=orthogonalEdgeStyle;rounded=0;orthogonalLoop=1;jettySize=auto;html=1;exitX=1;exitY=0.5;exitDx=0;exitDy=0;entryX=0;entryY=0.5;entryDx=0;entryDy=0;" edge="1" parent="1" source="gi-I5en-eRK9dhFBFpVk-30" target="gi-I5en-eRK9dhFBFpVk-31">
          <mxGeometry relative="1" as="geometry" />
        </mxCell>
        <mxCell id="gi-I5en-eRK9dhFBFpVk-30" value="&lt;b&gt;&lt;span style=&quot;font-size:12.0pt;line-height:107%;&lt;br/&gt;font-family:&amp;quot;Times New Roman&amp;quot;,serif;mso-fareast-font-family:&amp;quot;Times New Roman&amp;quot;;&lt;br/&gt;mso-ansi-language:RU;mso-fareast-language:RU;mso-bidi-language:AR-SA&quot;&gt;O10.3&lt;br/&gt;Линия&lt;/span&gt;&lt;/b&gt;" style="rounded=0;whiteSpace=wrap;html=1;" vertex="1" parent="1">
          <mxGeometry x="400" y="680" width="120" height="60" as="geometry" />
        </mxCell>
        <mxCell id="gi-I5en-eRK9dhFBFpVk-31" value="&lt;b&gt;&lt;span style=&quot;font-size:12.0pt;line-height:107%;&lt;br/&gt;font-family:&amp;quot;Times New Roman&amp;quot;,serif;mso-fareast-font-family:&amp;quot;Times New Roman&amp;quot;;&lt;br/&gt;mso-ansi-language:RU;mso-fareast-language:RU;mso-bidi-language:AR-SA&quot;&gt;O7.4&lt;br/&gt;Деталь&lt;/span&gt;&lt;/b&gt;" style="rounded=0;whiteSpace=wrap;html=1;" vertex="1" parent="1">
          <mxGeometry x="610" y="680" width="140" height="60" as="geometry" />
        </mxCell>
        <mxCell id="gi-I5en-eRK9dhFBFpVk-32" value="&lt;font style=&quot;font-size: 18px;&quot;&gt;&lt;b&gt;задача&lt;/b&gt;&lt;/font&gt;" style="text;html=1;align=center;verticalAlign=middle;resizable=0;points=[];autosize=1;strokeColor=none;fillColor=none;" vertex="1" parent="1">
          <mxGeometry x="10" y="320" width="80" height="40" as="geometry" />
        </mxCell>
        <mxCell id="gi-I5en-eRK9dhFBFpVk-33" value="&lt;font style=&quot;font-size: 18px;&quot;&gt;&lt;b&gt;Компонент&lt;/b&gt;&lt;/font&gt;" style="text;html=1;align=center;verticalAlign=middle;resizable=0;points=[];autosize=1;strokeColor=none;fillColor=none;" vertex="1" parent="1">
          <mxGeometry x="10" y="430" width="120" height="40" as="geometry" />
        </mxCell>
        <mxCell id="gi-I5en-eRK9dhFBFpVk-34" value="&lt;font style=&quot;font-size: 18px;&quot;&gt;&lt;b&gt;Объект&lt;/b&gt;&lt;/font&gt;" style="text;html=1;align=center;verticalAlign=middle;resizable=0;points=[];autosize=1;strokeColor=none;fillColor=none;" vertex="1" parent="1">
          <mxGeometry x="5" y="553" width="90" height="40" as="geometry" />
        </mxCell>
        <mxCell id="gi-I5en-eRK9dhFBFpVk-44" value="1:n" style="text;html=1;align=center;verticalAlign=middle;resizable=0;points=[];autosize=1;strokeColor=none;fillColor=none;" vertex="1" parent="1">
          <mxGeometry x="280" y="270" width="40" height="30" as="geometry" />
        </mxCell>
        <mxCell id="gi-I5en-eRK9dhFBFpVk-45" value="1:n" style="text;html=1;align=center;verticalAlign=middle;resizable=0;points=[];autosize=1;strokeColor=none;fillColor=none;" vertex="1" parent="1">
          <mxGeometry x="280" y="410" width="40" height="30" as="geometry" />
        </mxCell>
        <mxCell id="gi-I5en-eRK9dhFBFpVk-46" value="1:n" style="text;html=1;align=center;verticalAlign=middle;resizable=0;points=[];autosize=1;strokeColor=none;fillColor=none;" vertex="1" parent="1">
          <mxGeometry x="460" y="325" width="40" height="30" as="geometry" />
        </mxCell>
        <mxCell id="gi-I5en-eRK9dhFBFpVk-47" value="Математическое обоснование" style="text;html=1;align=center;verticalAlign=middle;resizable=0;points=[];autosize=1;strokeColor=none;fillColor=none;" vertex="1" parent="1">
          <mxGeometry x="385" y="348" width="190" height="30" as="geometry" />
        </mxCell>
        <mxCell id="gi-I5en-eRK9dhFBFpVk-48" value="1:n" style="text;html=1;align=center;verticalAlign=middle;resizable=0;points=[];autosize=1;strokeColor=none;fillColor=none;" vertex="1" parent="1">
          <mxGeometry x="280" y="513" width="40" height="30" as="geometry" />
        </mxCell>
        <mxCell id="gi-I5en-eRK9dhFBFpVk-49" value="1:n" style="text;html=1;align=center;verticalAlign=middle;resizable=0;points=[];autosize=1;strokeColor=none;fillColor=none;" vertex="1" parent="1">
          <mxGeometry x="430" y="500" width="40" height="30" as="geometry" />
        </mxCell>
        <mxCell id="gi-I5en-eRK9dhFBFpVk-50" value="1:n" style="text;html=1;align=center;verticalAlign=middle;resizable=0;points=[];autosize=1;strokeColor=none;fillColor=none;" vertex="1" parent="1">
          <mxGeometry x="660" y="410" width="40" height="30" as="geometry" />
        </mxCell>
        <mxCell id="gi-I5en-eRK9dhFBFpVk-51" value="1:n" style="text;html=1;align=center;verticalAlign=middle;resizable=0;points=[];autosize=1;strokeColor=none;fillColor=none;" vertex="1" parent="1">
          <mxGeometry x="545" y="450" width="40" height="30" as="geometry" />
        </mxCell>
        <mxCell id="gi-I5en-eRK9dhFBFpVk-52" value="1:n" style="text;html=1;align=center;verticalAlign=middle;resizable=0;points=[];autosize=1;strokeColor=none;fillColor=none;" vertex="1" parent="1">
          <mxGeometry x="450" y="650" width="40" height="30" as="geometry" />
        </mxCell>
        <mxCell id="gi-I5en-eRK9dhFBFpVk-53" value="1:n" style="text;html=1;align=center;verticalAlign=middle;resizable=0;points=[];autosize=1;strokeColor=none;fillColor=none;" vertex="1" parent="1">
          <mxGeometry x="670" y="640" width="40" height="30" as="geometry" />
        </mxCell>
        <mxCell id="gi-I5en-eRK9dhFBFpVk-57" value="&lt;div style=&quot;text-align: left;&quot;&gt;&lt;br&gt;&lt;/div&gt;" style="text;html=1;align=center;verticalAlign=middle;resizable=0;points=[];autosize=1;strokeColor=none;fillColor=none;" vertex="1" parent="1">
          <mxGeometry x="425" y="995" width="20" height="30" as="geometry" />
        </mxCell>
        <mxCell id="gi-I5en-eRK9dhFBFpVk-59" value="&lt;div&gt;&lt;font face=&quot;Helvetica&quot; style=&quot;font-size: 16px;&quot;&gt;&lt;b style=&quot;color: light-dark(rgb(0, 0, 0), rgb(255, 255, 255)); text-wrap-mode: nowrap; background-color: transparent;&quot;&gt;&lt;span style=&quot;line-height: 17.12px;&quot;&gt;R1.1 Исходные данные&lt;/span&gt;&lt;/b&gt;&lt;b style=&quot;&quot;&gt;&lt;span style=&quot;line-height: 107%;&quot;&gt;&lt;/span&gt;&lt;/b&gt;&lt;/font&gt;&lt;/div&gt;&lt;b&gt;&lt;span style=&quot;line-height: 107%;&quot;&gt;&lt;font size=&quot;3&quot; face=&quot;Helvetica&quot; style=&quot;&quot;&gt;R2.2 Название элемента&lt;/font&gt;&lt;/span&gt;&lt;/b&gt;&lt;div&gt;&lt;span style=&quot;line-height: 107%;&quot;&gt;&lt;font face=&quot;Helvetica&quot; size=&quot;3&quot;&gt;&lt;b&gt;R3.1 Тип объекта&lt;/b&gt;&lt;/font&gt;&lt;/span&gt;&lt;/div&gt;&lt;div&gt;&lt;font face=&quot;Helvetica&quot; size=&quot;3&quot;&gt;&lt;b&gt;R3.2 Вид объекта&lt;br&gt;&lt;/b&gt;&lt;/font&gt;&lt;div&gt;&lt;font face=&quot;Helvetica&quot; size=&quot;3&quot;&gt;&lt;b style=&quot;text-wrap-mode: nowrap;&quot;&gt;R3.3 Обоснование действия&lt;/b&gt;&lt;b&gt;&lt;span style=&quot;line-height: 107%;&quot;&gt;&lt;/span&gt;&lt;/b&gt;&lt;/font&gt;&lt;/div&gt;&lt;div&gt;&lt;div style=&quot;text-wrap-mode: nowrap;&quot;&gt;&lt;font face=&quot;Helvetica&quot; size=&quot;3&quot;&gt;&lt;b&gt;&lt;span style=&quot;line-height: 17.12px;&quot;&gt;R4.1 Назначение&lt;/span&gt;&lt;/b&gt;&lt;b&gt;&lt;span style=&quot;line-height: 17.12px;&quot;&gt;&lt;/span&gt;&lt;/b&gt;&lt;/font&gt;&lt;/div&gt;&lt;div style=&quot;text-wrap-mode: nowrap;&quot;&gt;&lt;font face=&quot;Helvetica&quot; size=&quot;3&quot;&gt;&lt;b&gt;&lt;span style=&quot;line-height: 17.12px;&quot;&gt;R5.4 Единицы измерения&lt;/span&gt;&lt;/b&gt;&lt;b&gt;&lt;span style=&quot;line-height: 17.12px;&quot;&gt;&lt;/span&gt;&lt;/b&gt;&lt;/font&gt;&lt;/div&gt;&lt;div style=&quot;text-wrap-mode: nowrap;&quot;&gt;&lt;b&gt;&lt;span style=&quot;line-height: 17.12px;&quot;&gt;&lt;font face=&quot;Helvetica&quot; size=&quot;3&quot;&gt;R5.5 Величина элемента&lt;/font&gt;&lt;/span&gt;&lt;/b&gt;&lt;/div&gt;&lt;/div&gt;&lt;/div&gt;&lt;div style=&quot;text-wrap-mode: nowrap;&quot;&gt;&lt;font face=&quot;Helvetica&quot; size=&quot;3&quot;&gt;&lt;b&gt;R5.7&amp;nbsp;&lt;span style=&quot;background-color: transparent; color: light-dark(rgb(0, 0, 0), rgb(255, 255, 255)); text-wrap-mode: wrap;&quot;&gt;Величина&lt;/span&gt;&lt;/b&gt;&lt;/font&gt;&lt;/div&gt;&lt;div style=&quot;text-wrap-mode: nowrap;&quot;&gt;&lt;font face=&quot;Helvetica&quot; size=&quot;3&quot;&gt;&lt;b&gt;&lt;span style=&quot;background-color: transparent; color: light-dark(rgb(0, 0, 0), rgb(255, 255, 255)); text-wrap-mode: wrap;&quot;&gt;&amp;nbsp; &amp;nbsp; &amp;nbsp; &amp;nbsp; &amp;nbsp;для всех вариантов&lt;/span&gt;&lt;/b&gt;&lt;/font&gt;&lt;/div&gt;&lt;div style=&quot;text-wrap-mode: nowrap;&quot;&gt;&lt;font face=&quot;Helvetica&quot; size=&quot;3&quot;&gt;&lt;b&gt;&lt;span style=&quot;background-color: transparent; color: light-dark(rgb(0, 0, 0), rgb(255, 255, 255)); text-wrap-mode: wrap;&quot;&gt;&amp;nbsp; &amp;nbsp; &amp;nbsp; &amp;nbsp; &amp;nbsp;исходных данных&lt;/span&gt;&lt;/b&gt;&lt;/font&gt;&lt;/div&gt;" style="text;whiteSpace=wrap;html=1;" vertex="1" parent="1">
          <mxGeometry x="250" y="775" width="240" height="220" as="geometry" />
        </mxCell>
        <mxCell id="gi-I5en-eRK9dhFBFpVk-61" value="&lt;h1&gt;Задание&lt;/h1&gt;&lt;span style=&quot;font-size:14.0pt;mso-bidi-font-size:11.0pt;line-height:106%;&lt;br/&gt;font-family:&amp;quot;Times New Roman&amp;quot;,serif;mso-fareast-font-family:Calibri;mso-fareast-theme-font:&lt;br/&gt;minor-latin;mso-ansi-language:RU;mso-fareast-language:EN-US;mso-bidi-language:&lt;br/&gt;AR-SA&quot;&gt;&amp;nbsp;&amp;nbsp;&amp;nbsp;&amp;nbsp;&amp;nbsp;&amp;nbsp;&amp;nbsp;&amp;nbsp; &lt;/span&gt;&lt;span style=&quot;font-size:14.0pt;mso-bidi-font-size:11.0pt;line-height:106%;font-family:&lt;br/&gt;&amp;quot;Times New Roman&amp;quot;,serif;mso-fareast-font-family:Calibri;mso-fareast-theme-font:&lt;br/&gt;minor-latin;mso-ansi-language:EN-US;mso-fareast-language:EN-US;mso-bidi-language:&lt;br/&gt;AR-SA&quot; lang=&quot;EN-US&quot;&gt;C&lt;/span&gt;&lt;span style=&quot;font-size:14.0pt;mso-bidi-font-size:11.0pt;&lt;br/&gt;line-height:106%;font-family:&amp;quot;Times New Roman&amp;quot;,serif;mso-fareast-font-family:&lt;br/&gt;Calibri;mso-fareast-theme-font:minor-latin;mso-ansi-language:RU;mso-fareast-language:&lt;br/&gt;EN-US;mso-bidi-language:AR-SA&quot;&gt;формировать начальную модель предметнойзадачи «&lt;/span&gt;&lt;i&gt;&lt;span style=&quot;font-size:14.0pt;line-height:&lt;br/&gt;106%;font-family:&amp;quot;Times New Roman&amp;quot;,serif;mso-fareast-font-family:Calibri;&lt;br/&gt;mso-fareast-theme-font:minor-latin;mso-ansi-language:RU;mso-fareast-language:&lt;br/&gt;EN-US;mso-bidi-language:AR-SA&quot;&gt;Данно сумма двух углов равнобидроной трапеции, найти болщий угол трапеции&lt;/span&gt;&lt;/i&gt;&lt;span style=&quot;font-size:14.0pt;mso-bidi-font-size:&lt;br/&gt;11.0pt;line-height:106%;font-family:&amp;quot;Times New Roman&amp;quot;,serif;mso-fareast-font-family:&lt;br/&gt;Calibri;mso-fareast-theme-font:minor-latin;mso-ansi-language:RU;mso-fareast-language:&lt;br/&gt;EN-US;mso-bidi-language:AR-SA&quot;&gt;» в соответствии с методикой начального моделирования предметных задач в МАИТ (методологии автоматизации интеллектуального труда).&lt;/span&gt;" style="rounded=1;whiteSpace=wrap;html=1;" vertex="1" parent="1">
          <mxGeometry x="20" y="-60" width="740" height="160" as="geometry" />
        </mxCell>
        <mxCell id="gi-I5en-eRK9dhFBFpVk-62" value="Кануте Абдурахим&lt;div&gt;ИДМ 24-08&lt;/div&gt;" style="text;html=1;align=left;verticalAlign=middle;resizable=0;points=[];autosize=1;strokeColor=none;fillColor=none;" vertex="1" parent="1">
          <mxGeometry x="50" y="110" width="130" height="40" as="geometry" />
        </mxCell>
      </root>
    </mxGraphModel>
  </diagram>
</mxfile>
